<svg xmlns="http://www.w3.org/2000/svg" viewBox="0 0 48 48" shape-rendering="crispEdges">
  <rect x="10" y="4" width="28" height="40" fill="#111820"/>
  <rect x="7" y="8" width="34" height="32" fill="#111820"/>
  <rect x="5" y="12" width="38" height="24" fill="#111820"/>
  <rect x="11" y="7" width="26" height="34" fill="#1b2630"/>
  <rect x="8" y="11" width="32" height="26" fill="#1b2630"/>
  <rect x="12" y="9" width="24" height="3" fill="#273542"/>
  <rect x="8" y="14" width="3" height="19" fill="#273542"/>
  <rect x="28" y="6" width="4" height="6" fill="#66d38f"/>
  <rect x="24" y="12" width="4" height="6" fill="#66d38f"/>
  <rect x="14" y="10" width="14" height="6" fill="#14796f"/>
  <rect x="10" y="16" width="14" height="6" fill="#1fa36f"/>
  <rect x="14" y="22" width="8" height="4" fill="#38d787"/>
  <rect x="18" y="20" width="14" height="22" fill="#8f203d"/>
  <rect x="14" y="24" width="22" height="16" fill="#8f203d"/>
  <rect x="12" y="30" width="26" height="8" fill="#8f203d"/>
  <rect x="16" y="26" width="18" height="14" fill="#d63f63"/>
  <rect x="14" y="30" width="22" height="6" fill="#d63f63"/>
  <rect x="20" y="26" width="10" height="12" fill="#ff4d7a"/>
  <rect x="18" y="30" width="14" height="6" fill="#ff4d7a"/>
  <rect x="18" y="28" width="6" height="6" fill="#ffe2e8"/>
  <rect x="20" y="40" width="12" height="4" fill="#8f203d"/>
</svg>
